<svg id="Capa_1" data-name="Capa 1" xmlns="http://www.w3.org/2000/svg" viewBox="0 0 277 42"><defs><style>.cls-1{fill:#666;}</style></defs><path class="cls-1" d="M10.73,6.35V19.89H26.38V6.35H30.6V38.7H26.38V23.54H10.73V38.7H6.55V6.35Z"/><path class="cls-1" d="M40.05,27.86c.1,5.71,3.75,8.06,8,8.06a15.35,15.35,0,0,0,6.44-1.2l.72,3a18.72,18.72,0,0,1-7.73,1.44C40.29,39.18,36,34.48,36,27.47s4.13-12.53,10.9-12.53c7.58,0,9.6,6.68,9.6,11a18.21,18.21,0,0,1-.14,2Zm12.39-3c.05-2.69-1.1-6.86-5.86-6.86-4.27,0-6.14,3.93-6.48,6.86Z"/><path class="cls-1" d="M74.62,38.7l-.34-2.92h-.15A8.65,8.65,0,0,1,67,39.23c-4.7,0-7.1-3.31-7.1-6.67,0-5.62,5-8.69,14-8.64v-.48c0-1.92-.53-5.38-5.29-5.38a11.51,11.51,0,0,0-6,1.73l-1-2.78a14.39,14.39,0,0,1,7.63-2.07c7.1,0,8.83,4.85,8.83,9.51v8.69a32.39,32.39,0,0,0,.39,5.56ZM74,26.85c-4.61-.1-9.84.72-9.84,5.23a3.73,3.73,0,0,0,4,4,5.78,5.78,0,0,0,5.62-3.89A4.21,4.21,0,0,0,74,30.88Z"/><path class="cls-1" d="M84.89,4.62h4.22V38.7H84.89Z"/><path class="cls-1" d="M101.3,8.8v6.67h6v3.22h-6V31.22c0,2.88.82,4.51,3.17,4.51a9.61,9.61,0,0,0,2.45-.29l.19,3.17a10.49,10.49,0,0,1-3.74.57,5.84,5.84,0,0,1-4.56-1.77c-1.2-1.25-1.64-3.31-1.64-6V18.69h-3.6V15.47h3.6V9.9Z"/><path class="cls-1" d="M112.1,4.62h4.23v14.5h.09a7.82,7.82,0,0,1,3-3,8.65,8.65,0,0,1,4.32-1.2c3.12,0,8.11,1.92,8.11,9.94V38.7h-4.23V25.36c0-3.74-1.39-6.91-5.37-6.91a6.08,6.08,0,0,0-5.67,4.22,5.14,5.14,0,0,0-.28,2v14H112.1Z"/><path class="cls-1" d="M161.49,37.65A20.66,20.66,0,0,1,153,39.18c-9.12,0-16-5.76-16-16.36,0-10.13,6.87-17,16.9-17a17.42,17.42,0,0,1,7.68,1.44l-1,3.41A15.16,15.16,0,0,0,154,9.33c-7.59,0-12.63,4.84-12.63,13.34,0,7.92,4.56,13,12.43,13a16.82,16.82,0,0,0,6.82-1.34Z"/><path class="cls-1" d="M187.08,26.9c0,8.59-6,12.33-11.57,12.33-6.29,0-11.14-4.61-11.14-11.95,0-7.78,5.09-12.34,11.52-12.34C182.57,14.94,187.08,19.79,187.08,26.9Zm-18.43.24c0,5.08,2.92,8.92,7,8.92s7.06-3.79,7.06-9c0-3.94-2-8.93-7-8.93S168.65,22.72,168.65,27.14Z"/><path class="cls-1" d="M211.85,32.37c0,2.4,0,4.51.19,6.33h-3.75l-.24-3.79H208a8.75,8.75,0,0,1-7.68,4.32c-3.65,0-8-2-8-10.17V15.47h4.23V28.34c0,4.41,1.34,7.39,5.18,7.39a6.12,6.12,0,0,0,5.57-3.84,6.19,6.19,0,0,0,.38-2.16V15.47h4.23Z"/><path class="cls-1" d="M235.41,37.84a15.48,15.48,0,0,1-6.67,1.34c-7,0-11.57-4.75-11.57-11.85S222.07,15,229.65,15a14.05,14.05,0,0,1,5.86,1.2l-1,3.27a9.75,9.75,0,0,0-4.9-1.11c-5.33,0-8.21,3.94-8.21,8.79,0,5.37,3.46,8.68,8.07,8.68a12,12,0,0,0,5.18-1.15Z"/><path class="cls-1" d="M240.36,4.62h4.22v14.5h.1a7.8,7.8,0,0,1,3-3,8.71,8.71,0,0,1,4.32-1.2c3.12,0,8.11,1.92,8.11,9.94V38.7h-4.22V25.36c0-3.74-1.39-6.91-5.38-6.91a6.07,6.07,0,0,0-5.66,4.22,5.13,5.13,0,0,0-.29,2v14h-4.22Z"/><path class="cls-1" d="M266,36.21a2.84,2.84,0,0,1,2.88-3,2.8,2.8,0,0,1,2.83,3,2.86,2.86,0,1,1-5.71,0Z"/></svg>